<?xml version="1.0" standalone="no"?><!DOCTYPE svg PUBLIC "-//W3C//DTD SVG 1.1//EN" "http://www.w3.org/Graphics/SVG/1.1/DTD/svg11.dtd"><svg t="1679044804554" class="icon" viewBox="0 0 1141 1024" version="1.1" xmlns="http://www.w3.org/2000/svg" p-id="55708" xmlns:xlink="http://www.w3.org/1999/xlink" width="71.3125" height="64"><path d="M1104.422676 340.261031H36.555762a21.933457 21.933457 0 0 1-21.933457-21.933457 21.933457 21.933457 0 0 1 21.933457-21.933457h1067.866914a21.933457 21.933457 0 0 1 21.933457 21.933457 21.933457 21.933457 0 0 1-21.933457 21.933457z" fill="#D3D5D9" p-id="55709"></path><path d="M1104.422676 683.592746H36.555762a21.933457 21.933457 0 0 1-21.933457-21.933457 21.933457 21.933457 0 0 1 21.933457-21.933457h1067.866914a21.933457 21.933457 0 0 1 21.933457 21.933457 21.933457 21.933457 0 0 1-21.933457 21.933457z" fill="#D3D5D9" p-id="55710"></path><path d="M742.081965 998.995859a21.933457 21.933457 0 0 1-21.933457-21.933457V121.145795a21.933457 21.933457 0 0 1 21.933457-21.933457 21.933457 21.933457 0 0 1 21.933457 21.933457v855.916607a21.933457 21.933457 0 0 1-21.933457 21.933457z" fill="#D3D5D9" p-id="55711"></path><path d="M398.896473 998.995859a21.933457 21.933457 0 0 1-21.933457-21.933457V121.145795a21.933457 21.933457 0 0 1 21.933457-21.933457 21.933457 21.933457 0 0 1 21.933457 21.933457v855.916607a21.933457 21.933457 0 0 1-21.933457 21.933457z" fill="#D3D5D9" p-id="55712"></path><path d="M1007.330573 1023.926888H133.647865A133.8672 133.8672 0 0 1 0 890.205912V36.555762a36.555762 36.555762 0 0 1 73.111524 0v853.65015a60.609453 60.609453 0 0 0 60.536341 60.609453h873.682708a60.609453 60.609453 0 0 0 60.536341-60.609453V36.555762a36.555762 36.555762 0 1 1 73.111524 0v853.65015a133.8672 133.8672 0 0 1-133.647865 133.720976z" fill="#3282FA" p-id="55713" data-spm-anchor-id="a313x.7781069.0.i14" class=""></path></svg>