<?xml version="1.0" standalone="no"?><!DOCTYPE svg PUBLIC "-//W3C//DTD SVG 1.1//EN" "http://www.w3.org/Graphics/SVG/1.1/DTD/svg11.dtd"><svg t="1679044742455" class="icon" viewBox="0 0 1024 1024" version="1.1" xmlns="http://www.w3.org/2000/svg" p-id="50892" xmlns:xlink="http://www.w3.org/1999/xlink" width="64" height="64"><path d="M925.8 211.5H813.2l-63.1-84.1H483.4l-64.8 84.1H303.5v-1.7c0-19.2-15.5-34.7-34.7-34.7h-67.2c-19.2 0-34.7 15.5-34.7 34.7v1.7H99.7C80.5 211.5 65 227 65 246.2v494.4c0 19.2 15.5 34.7 34.7 34.7h826.1c19.2 0 34.7-15.5 34.7-34.7V246.2c0-19.1-15.5-34.7-34.7-34.7zM329.5 360.9c0 9.9-20.5 18-45.7 18h-88.6c-25.2 0-45.7-8.1-45.7-18v-22.5c0-9.9 20.5-18 45.7-18h88.6c25.2 0 45.7 8.1 45.7 18v22.5zM617.9 715c-116.2 0-210.3-94.2-210.3-210.3s94.1-210.3 210.3-210.3c116.2 0 210.3 94.2 210.3 210.3S734.1 715 617.9 715z m0 0" p-id="50893" fill="#3282FA"></path><path d="M617.9 348c-86.6 0-156.7 70.2-156.7 156.7s70.2 156.7 156.7 156.7c86.6 0 156.7-70.2 156.7-156.7S704.4 348 617.9 348z m0 0" p-id="50894" fill="#3282FA"></path></svg>