<?xml version="1.0" standalone="no"?><!DOCTYPE svg PUBLIC "-//W3C//DTD SVG 1.1//EN" "http://www.w3.org/Graphics/SVG/1.1/DTD/svg11.dtd"><svg t="1679045663154" class="icon" viewBox="0 0 1024 1024" version="1.1" xmlns="http://www.w3.org/2000/svg" p-id="97449" xmlns:xlink="http://www.w3.org/1999/xlink" width="64" height="64"><path d="M755.52 384a29.76 29.76 0 0 0-28.48-20.8h-142.4l-44.16-134.4a29.76 29.76 0 0 0-56.96 0l-44.16 135.68H296.64a29.76 29.76 0 0 0-17.6 54.08l115.52 83.84L352 638.4a29.76 29.76 0 0 0 46.08 32L512 587.84 627.52 672a29.76 29.76 0 0 0 46.08-32l-44.16-137.6 115.52-83.84a29.76 29.76 0 0 0 10.56-34.56z m-175.68 120.96l32 93.76-79.68-57.92a32 32 0 0 0-37.76 0l-79.68 57.92 32-93.76a32 32 0 0 0-11.52-35.84L352 412.48h99.2a32 32 0 0 0 32-22.08l32-93.76 32 93.76a32 32 0 0 0 32 22.08H672l-79.68 57.92a32 32 0 0 0-12.16 35.84z" fill="#3282FA" p-id="97450"></path><path d="M288 747.2m32 0l384 0q32 0 32 32l0 0q0 32-32 32l-384 0q-32 0-32-32l0 0q0-32 32-32Z" fill="#3282FA" p-id="97451"></path><path d="M864 96H160a96 96 0 0 0-96 96v640a96 96 0 0 0 96 96h704a96 96 0 0 0 96-96V192a96 96 0 0 0-96-96z m32 720a48 48 0 0 1-48 48h-672A48 48 0 0 1 128 816v-608A48 48 0 0 1 176 160h672A48 48 0 0 1 896 208z" fill="#3282FA" p-id="97452"></path></svg>