<?xml version="1.0" standalone="no"?><!DOCTYPE svg PUBLIC "-//W3C//DTD SVG 1.1//EN" "http://www.w3.org/Graphics/SVG/1.1/DTD/svg11.dtd"><svg t="1679044693381" class="icon" viewBox="0 0 1120 1024" version="1.1" xmlns="http://www.w3.org/2000/svg" p-id="48418" data-spm-anchor-id="a313x.7781069.0.i10" xmlns:xlink="http://www.w3.org/1999/xlink" width="70" height="64"><path d="M63.008 644v-272.992h54.016l111.008 182.016v-182.016h52v272.992h-56l-110.016-178.016v178.016H63.008z m273.984-272.992h55.008v148q0 36 2.016 44.992 4 16.992 16.992 27.008t36.512 10.016 35.008-8.992 14.496-24 3.008-46.016v-151.008h55.008v143.008q0 48.992-4 68.992t-16.512 34.496-32.512 22.496-52 8q-39.008 0-59.008-9.504t-31.488-24-15.488-29.504q-4.992-24.992-4.992-68.992v-144.992h-2.016z m277.024 272.992v-271.008h55.008v224.992h136.992v46.016h-192z m232.992 0v-271.008h55.008v224.992h136.992v46.016h-192z" p-id="48419" fill="#3282FA"></path></svg>