<?xml version="1.0" encoding="UTF-8" standalone="no"?>
<svg
   t="1679044927248"
   class="icon"
   viewBox="0 0 1024 1024"
   version="1.1"
   p-id="57270"
   width="64"
   height="64"
   id="svg6"
   sodipodi:docname="XvFuncType_Location.svg"
   inkscape:version="1.2.1 (9c6d41e410, 2022-07-14)"
   xmlns:inkscape="http://www.inkscape.org/namespaces/inkscape"
   xmlns:sodipodi="http://sodipodi.sourceforge.net/DTD/sodipodi-0.dtd"
   xmlns="http://www.w3.org/2000/svg"
   xmlns:svg="http://www.w3.org/2000/svg">
  <defs
     id="defs10" />
  <sodipodi:namedview
     id="namedview8"
     pagecolor="#ffffff"
     bordercolor="#000000"
     borderopacity="0.25"
     inkscape:showpageshadow="2"
     inkscape:pageopacity="0.0"
     inkscape:pagecheckerboard="0"
     inkscape:deskcolor="#d1d1d1"
     showgrid="false"
     inkscape:zoom="13.078125"
     inkscape:cx="32.038232"
     inkscape:cy="32.038232"
     inkscape:window-width="1920"
     inkscape:window-height="1017"
     inkscape:window-x="-8"
     inkscape:window-y="-8"
     inkscape:window-maximized="1"
     inkscape:current-layer="svg6" />
  <path
     d="M512 512m-80 0a80 80 0 1 0 160 0 80 80 0 1 0-160 0Z"
     p-id="57271"
     fill="#8a8a8a"
     data-spm-anchor-id="a313x.7781069.0.i17"
     class=""
     id="path2"
     style="fill:#3282fa;fill-opacity:1" />
  <path
     d="M960 480h-33.632C910.752 276.16 747.84 113.248 544 97.632V64a32 32 0 1 0-64 0v33.632C276.16 113.248 113.248 276.16 97.632 480H64a32 32 0 0 0 0 64h33.632C113.248 747.84 276.16 910.752 480 926.368V960a32 32 0 1 0 64 0v-33.632C747.84 910.752 910.752 747.84 926.368 544H960a32 32 0 1 0 0-64zM544 862.368V800a32 32 0 1 0-64 0v62.368C311.424 847.104 176.896 712.576 161.632 544H224a32 32 0 1 0 0-64H161.632C176.896 311.424 311.424 176.896 480 161.632V224a32 32 0 0 0 64 0V161.632c168.576 15.296 303.104 149.792 318.368 318.368H800a32 32 0 1 0 0 64h62.368c-15.264 168.576-149.792 303.104-318.368 318.368z"
     p-id="57272"
     fill="#3282FA"
     id="path4" />
</svg>
