<?xml version="1.0" standalone="no"?><!DOCTYPE svg PUBLIC "-//W3C//DTD SVG 1.1//EN" "http://www.w3.org/Graphics/SVG/1.1/DTD/svg11.dtd"><svg t="1679045184866" class="icon" viewBox="0 0 1024 1024" version="1.1" xmlns="http://www.w3.org/2000/svg" p-id="67385" xmlns:xlink="http://www.w3.org/1999/xlink" width="64" height="64"><path d="M499.52 64a435.52 435.52 0 0 1 335.872 712.768l115.52 115.52a12.8 12.8 0 0 1 0 18.112l-40.768 40.704a12.8 12.8 0 0 1-18.048 0l-115.584-115.456A435.52 435.52 0 1 1 499.52 64z m0 83.2a352.32 352.32 0 1 0 0 704.64 352.32 352.32 0 0 0 0-704.64z m104.768 183.808l3.2 5.376 69.504 140.416h90.88c17.536 0 32 12.8 34.752 29.44l0.512 5.76c0 17.472-12.8 32-29.504 34.752l-5.76 0.448h-112.64a35.2 35.2 0 0 1-28.672-14.72l-2.944-4.864-44.224-89.408-98.496 246.848a35.2 35.2 0 0 1-60.8 8.128l-3.328-5.376L346.24 547.2H256a35.2 35.2 0 0 1-34.752-29.44L220.8 512c0-17.472 12.8-32 29.44-34.752L256 476.8h112a35.2 35.2 0 0 1 28.544 14.592l2.944 4.8 45.056 89.984 98.752-247.232a35.2 35.2 0 0 1 60.992-7.936z" fill="#3282FA" p-id="67386"></path></svg>