<?xml version="1.0" standalone="no"?><!DOCTYPE svg PUBLIC "-//W3C//DTD SVG 1.1//EN" "http://www.w3.org/Graphics/SVG/1.1/DTD/svg11.dtd"><svg t="1679045506198" class="icon" viewBox="0 0 1087 1024" version="1.1" xmlns="http://www.w3.org/2000/svg" p-id="86801" xmlns:xlink="http://www.w3.org/1999/xlink" width="67.9375" height="64"><path d="M36.856 371.22l453.97 204.127c20.377 9.568 35.084 14.352 50.322 14.352 15.239 0 30.832-4.784 52.804-14.352l453.97-204.127c15.946-7.442 26.224-26.402 26.932-49.614 0.71-24.63-9.745-46.602-26.933-55.993L594.13 26.225c-35.439-21.086-61.486-21.086-103.48 0L36.855 265.79l-0.177 0.177c-17.897 11.518-28.528 33.49-27.465 57.41 0.886 21.264 11.34 39.16 27.642 47.843zM549.831 78.85c0.886-0.177 1.595-0.709 2.126-1.595L999.902 318.24 542.389 511.025 85.053 318.24 541.68 72.472c5.138 6.379 6.733 6.733 8.15 6.379z m491.357 646.401c-17.542 8.86-34.199 17.188-36.325 18.074L542.034 956.844 79.56 743.503l-0.886 1.772 0.709-1.772c-1.95-0.709-41.464-18.605-70.878-35.439l-3.898-2.303v4.607c0 26.579 6.733 74.953 32.072 88.42l453.792 203.949c20.377 9.568 35.084 14.53 50.323 14.53 15.239 0 30.832-4.785 52.804-14.353l453.969-203.95c23.39-10.985 32.072-60.068 32.072-88.419v-4.253l-3.899 1.95c-10.808 5.138-23.035 11.34-34.552 17.01z" p-id="86802" fill="#3282FA"></path><path d="M1075.74 494.192a1571.41 1571.41 0 0 1-24.452 12.226c-20.732 10.455-44.299 22.327-46.602 23.213L542.034 743.149 79.56 529.808l-0.886 1.772 0.709-1.772c-2.127-0.709-41.64-18.783-70.878-35.439l-3.898-2.303v4.607c0 26.579 6.733 74.953 31.895 88.42L490.47 789.218c20.377 9.568 35.084 14.353 50.323 14.353 15.239 0 30.832-4.785 52.804-14.353l453.969-204.127c23.39-10.809 32.072-60.068 32.072-88.42v-4.252l-3.899 1.772z" p-id="86803" fill="#3282FA"></path></svg>