<?xml version="1.0" standalone="no"?><!DOCTYPE svg PUBLIC "-//W3C//DTD SVG 1.1//EN" "http://www.w3.org/Graphics/SVG/1.1/DTD/svg11.dtd"><svg t="1679045370797" class="icon" viewBox="0 0 1024 1024" version="1.1" xmlns="http://www.w3.org/2000/svg" p-id="78678" xmlns:xlink="http://www.w3.org/1999/xlink" width="64" height="64"><path d="M704 704h192v192h-192zM416 128h192v192h-192zM128 704h192v192H128z" fill="#E0EBFE" p-id="78679" data-spm-anchor-id="a313x.7781069.0.i35" class="selected"></path><path d="M989.76 544a32 32 0 0 0 0-64H544v-128h64a32 32 0 0 0 32-32V128a32 32 0 0 0-32-32h-192a32 32 0 0 0-32 32v192a32 32 0 0 0 32 32h64v128H34.24a32 32 0 0 0 0 64H192v128H128a32 32 0 0 0-32 32v192a32 32 0 0 0 32 32h192a32 32 0 0 0 32-32v-192a32 32 0 0 0-32-32H256v-128h512v128h-64a32 32 0 0 0-32 32v192a32 32 0 0 0 32 32h192a32 32 0 0 0 32-32v-192a32 32 0 0 0-32-32h-64v-128h157.76zM288 736v128H160v-128h128z m160-448V160h128v128h-128z m416 448v128h-128v-128h128z" fill="#3282FA" p-id="78680" data-spm-anchor-id="a313x.7781069.0.i34" class="selected"></path></svg>