<?xml version="1.0" standalone="no"?><!DOCTYPE svg PUBLIC "-//W3C//DTD SVG 1.1//EN" "http://www.w3.org/Graphics/SVG/1.1/DTD/svg11.dtd"><svg t="1679045088753" class="icon" viewBox="0 0 1024 1024" version="1.1" xmlns="http://www.w3.org/2000/svg" p-id="63294" xmlns:xlink="http://www.w3.org/1999/xlink" width="64" height="64"><path d="M847.616 1024H150.784a105.92 105.92 0 0 1-93.888-93.888V93.888A108.672 108.672 0 0 1 150.784 0h512l278.72 278.784v651.328A105.92 105.92 0 0 1 847.616 1024z m0-745.216h-139.328a51.392 51.392 0 0 1-45.504-45.568V93.888h-466.56c-25.6-2.88-45.44 17.024-45.44 42.624v748.16c5.632 22.72 22.72 42.624 45.44 45.44h605.888c25.6-2.816 45.504-22.72 45.504-45.44V278.72z m-128 591.616l-102.4-105.216-56.832 56.832a46.464 46.464 0 0 1-68.288 0c-2.88-2.816-2.88-5.632-5.696-5.632l-147.904-145.088-59.712 59.712a46.464 46.464 0 0 1-68.288 0c-19.904-17.024-19.904-48.32 0-68.224l88.192-88.192a41.92 41.92 0 0 1 59.712-8.576c5.696 2.88 8.512 8.576 11.392 14.272l145.024 145.024 59.776-59.712a49.792 49.792 0 0 1 71.04 0l136.576 136.512a46.464 46.464 0 0 1 0 68.288c-14.208 19.904-45.44 19.904-62.592 0zM614.4 605.888c-76.8 0-139.392-62.592-139.392-139.392S537.6 327.04 614.4 327.04s139.392 62.592 139.392 139.392S691.2 605.888 614.4 605.888z m0-187.776c-25.6 0-45.504 19.904-45.504 45.504 0 25.6 19.904 45.568 45.504 45.568 25.6 0 45.504-19.968 45.504-45.568 2.88-22.72-19.904-45.44-45.504-45.44z" p-id="63295" fill="#3282FA"></path></svg>