<?xml version="1.0" standalone="no"?><!DOCTYPE svg PUBLIC "-//W3C//DTD SVG 1.1//EN" "http://www.w3.org/Graphics/SVG/1.1/DTD/svg11.dtd"><svg t="1679045545363" class="icon" viewBox="0 0 1024 1024" version="1.1" xmlns="http://www.w3.org/2000/svg" p-id="88766" xmlns:xlink="http://www.w3.org/1999/xlink" width="64" height="64"><path d="M814.795699 88.086022c66.890323 0 121.11828 54.227957 121.118279 121.118279s-54.227957 121.11828-121.118279 121.11828c-56.127312 0-103.335914-38.179785-117.077333-89.985377v1.16714h-205.901076a32.300043 32.300043 0 0 0-32.261505 30.686968l-0.038538 1.60757V475.664516h101.243871c14.137806-51.211011 61.054624-88.818237 116.769033-88.818236 66.890323 0 121.11828 54.227957 121.118279 121.118279s-54.227957 121.11828-121.118279 121.11828c-55.708903 0-102.62572-37.607226-116.769033-88.818237h-101.243871v209.936516a32.300043 32.300043 0 0 0 30.686968 32.261506l1.60757 0.033032h205.901075v1.16714C711.459785 731.857204 758.673892 693.677419 814.795699 693.677419c66.890323 0 121.11828 54.227957 121.118279 121.11828s-54.227957 121.11828-121.118279 121.118279c-56.127312 0-103.335914-38.179785-117.077333-89.985376v1.16714h-205.901076c-52.691957 0-95.562323-42.061075-96.867096-94.43372l-0.033033-2.460904V540.259097l-68.949333 0.005505c-14.137806 51.211011-61.054624 88.818237-116.763527 88.818237-66.890323 0-121.11828-54.227957-121.118279-121.11828s54.227957-121.11828 121.118279-121.118279c55.708903 0 102.631226 37.607226 116.769032 88.823742l68.943828-0.005506V273.798882c0-52.686452 42.061075-95.556817 94.433721-96.861592l2.460903-0.033032h205.901075v1.16714C711.459785 126.265806 758.673892 88.086022 814.795699 88.086022z m0 670.185978c-31.215484 0-56.523699 25.308215-56.523699 56.523699 0 31.215484 25.308215 56.523699 56.523699 56.523699 31.215484 0 56.523699-25.308215 56.523699-56.523699 0-31.215484-25.308215-56.523699-56.523699-56.523699zM677.530151 451.44086c-31.215484 0-56.523699 25.308215-56.523699 56.523699 0 31.215484 25.308215 56.518194 56.523699 56.518194 31.215484 0 56.518194-25.30271 56.518193-56.518194S708.745634 451.44086 677.530151 451.44086zM209.204301 451.44086c-31.215484 0-56.523699 25.308215-56.523699 56.523699 0 31.215484 25.308215 56.518194 56.523699 56.518194 31.215484 0 56.523699-25.30271 56.523699-56.518194S240.419785 451.44086 209.204301 451.44086z m605.591398-298.760258c-31.215484 0-56.523699 25.308215-56.523699 56.523699 0 31.215484 25.308215 56.523699 56.523699 56.523699 31.215484 0 56.523699-25.308215 56.523699-56.523699 0-31.215484-25.308215-56.523699-56.523699-56.523699z" fill="#3282FA" p-id="88767"></path></svg>