<?xml version="1.0" encoding="UTF-8" standalone="no"?>
<svg
   t="1682070038734"
   class="icon"
   viewBox="0 0 1024 1024"
   version="1.1"
   p-id="14084"
   width="32"
   height="32"
   id="svg272"
   sodipodi:docname="BaseDataRealCalc.svg"
   inkscape:version="1.2.1 (9c6d41e410, 2022-07-14)"
   xmlns:inkscape="http://www.inkscape.org/namespaces/inkscape"
   xmlns:sodipodi="http://sodipodi.sourceforge.net/DTD/sodipodi-0.dtd"
   xmlns="http://www.w3.org/2000/svg"
   xmlns:svg="http://www.w3.org/2000/svg">
  <defs
     id="defs276" />
  <sodipodi:namedview
     id="namedview274"
     pagecolor="#ffffff"
     bordercolor="#000000"
     borderopacity="0.25"
     inkscape:showpageshadow="2"
     inkscape:pageopacity="0.0"
     inkscape:pagecheckerboard="0"
     inkscape:deskcolor="#d1d1d1"
     showgrid="false"
     inkscape:zoom="26.15625"
     inkscape:cx="16.057348"
     inkscape:cy="16.057348"
     inkscape:window-width="1920"
     inkscape:window-height="1017"
     inkscape:window-x="-8"
     inkscape:window-y="-8"
     inkscape:window-maximized="1"
     inkscape:current-layer="svg272" />
  <path
     d="M847 959.2H177.6c-62.6 0-113.5-50.9-113.5-113.5V177.1c0-62.6 50.9-113.5 113.5-113.5H847c62.6 0 113.5 50.9 113.5 113.5v668.7c-0.1 62.5-51 113.4-113.5 113.4zM177.6 109.6c-37.2 0-67.5 30.3-67.5 67.5v668.7c0 37.2 30.3 67.5 67.5 67.5H847c37.2 0 67.5-30.3 67.5-67.5V177.1c0-37.2-30.3-67.5-67.5-67.5H177.6z"
     fill="#3282FA"
     p-id="14085"
     id="path268" />
  <text
     xml:space="preserve"
     style="font-size:407.155px;fill:#3282fa;fill-opacity:1;stroke-width:33.9295"
     x="112.72208"
     y="655.15747"
     id="text505"
     transform="scale(0.97604759,1.0245402)"><tspan
       sodipodi:role="line"
       id="tspan503"
       style="font-style:normal;font-variant:normal;font-weight:normal;font-stretch:normal;font-family:'Microsoft YaHei UI';-inkscape-font-specification:'Microsoft YaHei UI';fill:#3282fa;fill-opacity:1;stroke-width:33.9295"
       x="112.72208"
       y="655.15747">Real</tspan></text>
</svg>
