<?xml version="1.0" standalone="no"?><!DOCTYPE svg PUBLIC "-//W3C//DTD SVG 1.1//EN" "http://www.w3.org/Graphics/SVG/1.1/DTD/svg11.dtd"><svg t="1682663529177" class="icon" viewBox="0 0 1024 1024" version="1.1" xmlns="http://www.w3.org/2000/svg" p-id="13793" xmlns:xlink="http://www.w3.org/1999/xlink" width="32" height="32"><path d="M511.241484 1024a513.515135 513.515135 0 0 1-444.490205-259.412373l65.990866-37.167269A436.146533 436.146533 0 1 0 511.241484 75.855363l-3.792578-75.85157a511.998104 511.998104 0 1 1 3.792578 1023.996207z" fill="#3282FA" p-id="13794"></path><path d="M279.894193 697.838245l-39.442817-65.232351 232.864323-141.842438V106.195992h75.851571v427.044344L279.894193 697.838245z" fill="#3282FA" p-id="13795"></path><path d="M339.058418 69.787238m-36.408754 0a36.408754 36.408754 0 1 0 72.817508 0 36.408754 36.408754 0 1 0-72.817508 0Z" fill="#3282FA" p-id="13796"></path><path d="M192.664886 160.809123m-36.408754 0a36.408754 36.408754 0 1 0 72.817508 0 36.408754 36.408754 0 1 0-72.817508 0Z" fill="#3282FA" p-id="13797"></path><path d="M87.989719 297.341951m-36.408754 0a36.408754 36.408754 0 1 0 72.817508 0 36.408754 36.408754 0 1 0-72.817508 0Z" fill="#3282FA" p-id="13798"></path><path d="M37.169166 467.249469m-36.408754 0a36.408754 36.408754 0 1 0 72.817508 0 36.408754 36.408754 0 1 0-72.817508 0Z" fill="#3282FA" p-id="13799"></path><path d="M54.615027 641.708083m-36.408754 0a36.408754 36.408754 0 1 0 72.817508 0 36.408754 36.408754 0 1 0-72.817508 0Z" fill="#3282FA" p-id="13800"></path></svg>