<?xml version="1.0" standalone="no"?><!DOCTYPE svg PUBLIC "-//W3C//DTD SVG 1.1//EN" "http://www.w3.org/Graphics/SVG/1.1/DTD/svg11.dtd"><svg t="1682586140886" class="icon" viewBox="0 0 1024 1024" version="1.1" xmlns="http://www.w3.org/2000/svg" p-id="3490" xmlns:xlink="http://www.w3.org/1999/xlink" width="32" height="32"><path d="M812.8512 281.6c0 6.4512 0 12.8-6.4512 19.2512-25.6 134.3488-153.6 243.0976-307.2 243.0976A316.928 316.928 0 0 1 179.2 224.0512V64H83.1488C64.1024 64 51.2 51.2 51.2 31.9488 51.2 12.9024 64 0 83.2512 0h831.8976c19.2512 0 32.0512 12.8 32.0512 32.0512 0 19.1488-12.8 31.9488-32.0512 31.9488H819.2v160.0512c0 19.1488 0 38.2976-6.4512 57.5488z m-569.6512-51.2c25.6-6.4512 57.6512-6.4512 102.4-6.4512 44.8512 6.4512 76.8 19.2512 121.6512 44.8512 6.3488 6.4512 6.3488 6.4512 12.8 6.4512 31.9488 25.6 51.2 38.2976 83.1488 38.2976 51.2 0 115.2-19.1488 192-51.2V64h-512V230.4c0-6.4512 0 0 0 0zM256 294.4c32.0512 108.8512 128 185.6512 243.2 185.6512 96.0512 0 185.6512-57.6512 230.4-140.8C665.6 364.8512 614.4 377.5488 563.2 377.5488c-44.8512 0-76.8-12.6976-121.6512-38.2976-6.3488-6.4512-6.3488-6.4512-6.3488-12.9024-38.4-25.6-64-31.9488-96.0512-38.2976-44.7488 0-76.8 0-83.1488 6.3488z m275.2512 249.6512v31.9488c0 19.2512-12.8 32.0512-32.0512 32.0512s-32.0512-12.8-32.0512-32.0512v-32.0512a252.5184 252.5184 0 0 0-217.6 192c25.6-6.3488 57.6512-6.3488 96.0512 0 44.8512 6.4512 76.8 12.8 128 44.8512 44.8512 25.6 70.4512 32.0512 108.8512 38.4 57.5488 6.4512 115.2-19.2512 166.4-64-19.2512-108.8512-108.8512-198.4512-217.6-211.2512zM179.2 793.6s0-6.4512 0 0C185.6512 614.4 326.4512 479.9488 499.2 479.9488A316.928 316.928 0 0 1 819.2 800.0512v160.0512h96.0512c19.1488 0 31.9488 12.8 31.9488 32.0512 0 19.1488-12.8 31.9488-32.0512 31.9488H83.2512C63.8976 1024 51.2 1011.2 51.2 991.9488c0-19.1488 12.8-31.9488 32.0512-31.9488h95.9488V793.6c0 6.4512 0 0 0 0z m576 38.4c-57.6512 38.4-115.2 57.6512-179.2 51.2-51.2-6.4512-76.8-12.8-134.4512-44.8512a293.376 293.376 0 0 0-102.4-38.2976c-44.7488-6.4512-83.1488 0-95.9488 6.3488v153.6h512v-128z m-256-192c19.2512 0 32.0512 12.8 32.0512 32.0512 0 19.1488-12.8 31.9488-32.0512 31.9488s-32.0512-12.8-32.0512-32.0512c0-19.1488 12.8-31.9488 32.0512-31.9488z" fill="#3282FA" p-id="3491"></path></svg>