<?xml version="1.0" encoding="UTF-8" standalone="no"?>
<svg
   t="1677641400737"
   class="icon"
   viewBox="0 0 1024 1024"
   version="1.1"
   p-id="7018"
   width="64"
   height="64"
   id="svg4"
   sodipodi:docname="DrawerBranchOpen.svg"
   inkscape:version="1.2.1 (9c6d41e410, 2022-07-14)"
   xmlns:inkscape="http://www.inkscape.org/namespaces/inkscape"
   xmlns:sodipodi="http://sodipodi.sourceforge.net/DTD/sodipodi-0.dtd"
   xmlns="http://www.w3.org/2000/svg"
   xmlns:svg="http://www.w3.org/2000/svg">
  <defs
     id="defs8" />
  <sodipodi:namedview
     id="namedview6"
     pagecolor="#ffffff"
     bordercolor="#000000"
     borderopacity="0.25"
     inkscape:showpageshadow="2"
     inkscape:pageopacity="0.0"
     inkscape:pagecheckerboard="0"
     inkscape:deskcolor="#d1d1d1"
     showgrid="false"
     inkscape:zoom="13.078125"
     inkscape:cx="32.038232"
     inkscape:cy="32.038232"
     inkscape:window-width="1920"
     inkscape:window-height="1017"
     inkscape:window-x="-8"
     inkscape:window-y="-8"
     inkscape:window-maximized="1"
     inkscape:current-layer="svg4" />
  <path
     d="m 663.73818,400.61867 q 8.704,-8.704 19.712,-11.264 11.008,-2.56 20.48,1.024 9.472,3.584 15.872,13.312 6.4,9.728 6.4,25.088 v 230.912 q 0,13.824 -4.608,26.112 -4.608,12.288 -12.8,21.504 -8.192,9.216 -19.456,14.336 -11.264,5.12 -24.576,5.12 h -245.248 q -13.312,0 -21.76,-6.656 -8.448,-6.656 -11.52,-16.384 -3.072,-9.728 -0.512,-20.736 2.56,-11.008 11.264,-19.712 12.8,-12.8 35.072,-34.56 22.272,-21.76 49.152,-48.128 26.88,-26.368 55.296,-54.528 28.416,-28.16 53.76,-52.992 25.344,-24.832 45.056,-44.288 19.712,-19.456 28.416,-28.16 z"
     p-id="7019"
     data-spm-anchor-id="a313x.7781069.0.i0"
     class=""
     fill="#8a8a8a"
     id="path2"
     style="fill:#4f4f4f;fill-opacity:1;stroke-width:0.5" />
</svg>
