<?xml version="1.0" standalone="no"?><!DOCTYPE svg PUBLIC "-//W3C//DTD SVG 1.1//EN" "http://www.w3.org/Graphics/SVG/1.1/DTD/svg11.dtd"><svg t="1684309102360" class="icon" viewBox="0 0 1280 1024" version="1.1" xmlns="http://www.w3.org/2000/svg" p-id="6077" xmlns:xlink="http://www.w3.org/1999/xlink" width="40" height="32"><path d="M253.952 0v69.7856H76.6976v884.4288H253.952V1024H0V0h253.952zM1280 0v1024h-253.952v-69.7856h177.2544V69.7856H1026.048V0H1280zM642.9184 148.8896c85.9136 0 154.4192 20.736 205.568 64.1536 48.2816 40.448 78.2336 98.6624 90.7776 175.616h-79.1552c-10.6496-53.248-33.792-93.696-69.5296-122.368-37.632-30.5664-86.8864-45.3632-147.6608-45.3632-75.3152 0-134.1952 26.624-178.5856 80.896-44.4416 53.248-65.6384 125.3376-65.6384 216.064 0 88.832 21.1968 158.8736 63.6928 210.2272 45.3632 54.272 112.9472 81.92 202.752 81.92a392.704 392.704 0 0 0 108.032-15.872 324.4544 324.4544 0 0 0 86.9376-39.424v-179.6096h-216.2688V505.088h294.4v288.1536c-32.768 27.648-73.3184 48.3328-120.6272 64.1024-50.176 15.8208-103.2704 23.7056-160.256 23.7056-109.056 0-194.048-35.5328-253.8496-106.5984-56.0128-66.048-83.968-151.9616-83.968-256.512 0-104.6016 26.9824-190.464 82.9952-258.56 58.88-73.984 139.008-110.4896 240.384-110.4896z" fill="#3282FA" p-id="6078"></path></svg>