<?xml version="1.0" standalone="no"?><!DOCTYPE svg PUBLIC "-//W3C//DTD SVG 1.1//EN" "http://www.w3.org/Graphics/SVG/1.1/DTD/svg11.dtd"><svg t="1681174530729" class="icon" viewBox="0 0 1024 1024" version="1.1" xmlns="http://www.w3.org/2000/svg" p-id="11006" xmlns:xlink="http://www.w3.org/1999/xlink" width="32" height="32"><path d="M320 128c-44.18 0-80 35.82-80 80s35.82 80 80 80 80-35.82 80-80-35.82-80-80-80z m0-96c80.57 0 148.5 54.14 169.38 128.03L944 160c26.51 0 48 21.49 48 48 0 24.95-19.04 45.45-43.38 47.78L944 256l-454.63 0.01C468.48 329.88 400.56 384 320 384s-148.48-54.12-169.37-127.99L80 256c-26.51 0-48-21.49-48-48 0-24.95 19.04-45.45 43.38-47.78L80 160l70.62 0.03C171.5 86.14 239.43 32 320 32z m384 416c-44.18 0-80 35.82-80 80s35.82 80 80 80 80-35.82 80-80-35.82-80-80-80z m0-96c80.57 0 148.5 54.14 169.38 128.03L944 480c26.51 0 48 21.49 48 48 0 24.95-19.04 45.45-43.38 47.78L944 576l-70.63 0.01C852.48 649.88 784.56 704 704 704s-148.48-54.12-169.37-127.99L80 576c-26.51 0-48-21.49-48-48 0-24.95 19.04-45.45 43.38-47.78L80 480l454.62 0.03C555.5 406.14 623.43 352 704 352zM320 736c-44.18 0-80 35.82-80 80s35.82 80 80 80 80-35.82 80-80-35.82-80-80-80z m0-96c80.57 0 148.5 54.14 169.38 128.03L944 768c26.51 0 48 21.49 48 48 0 24.95-19.04 45.45-43.38 47.78L944 864l-454.63 0.01C468.48 937.88 400.56 992 320 992s-148.48-54.12-169.37-127.99L80 864c-26.51 0-48-21.49-48-48 0-24.95 19.04-45.45 43.38-47.78L80 768l70.62 0.03C171.5 694.14 239.43 640 320 640z" fill="#3282FA" p-id="11007"></path></svg>