<?xml version="1.0" standalone="no"?><!DOCTYPE svg PUBLIC "-//W3C//DTD SVG 1.1//EN" "http://www.w3.org/Graphics/SVG/1.1/DTD/svg11.dtd"><svg t="1681176071675" class="icon" viewBox="0 0 1024 1024" version="1.1" xmlns="http://www.w3.org/2000/svg" p-id="12314" xmlns:xlink="http://www.w3.org/1999/xlink" width="32" height="32"><path d="M697.1 170.7H156.2C69.9 170.7 0 240.6 0 326.9v540.9C0 954.1 69.9 1024 156.2 1024h540.9c86.3 0 156.2-69.9 156.2-156.2V326.9c0-86.3-69.9-156.2-156.2-156.2z m98.5 697.1c0 54.3-44.2 98.5-98.5 98.5H156.2c-54.3 0-98.5-44.2-98.5-98.5V326.9c0-54.3 44.2-98.5 98.5-98.5h540.9c54.3 0 98.5 44.2 98.5 98.5v540.9z" p-id="12315" fill="#3282FA"></path><path d="M867.8 0H326.9C255.3 0 195 48.1 176.6 113.8h61.6c15.9-33.1 49.7-56.1 88.8-56.1h540.9c54.3 0 98.5 44.2 98.5 98.5v540.9c0 39.1-23 72.9-56.1 88.8v61.6C975.9 829 1024 768.7 1024 697.1V156.2C1024 69.9 954.1 0 867.8 0z" p-id="12316" fill="#3282FA"></path><path d="M170.7 455.1h227.5v398.2h56.9V455.1h227.6v-56.9h-512z" p-id="12317" fill="#3282FA"></path></svg>