<?xml version="1.0" standalone="no"?><!DOCTYPE svg PUBLIC "-//W3C//DTD SVG 1.1//EN" "http://www.w3.org/Graphics/SVG/1.1/DTD/svg11.dtd"><svg t="1681194607727" class="icon" viewBox="0 0 1024 1024" version="1.1" xmlns="http://www.w3.org/2000/svg" p-id="39316" xmlns:xlink="http://www.w3.org/1999/xlink" width="32" height="32"><path d="M1000.727273 664.901818Q971.869091 542.487273 943.709091 418.909091a19.549091 19.549091 0 0 0-23.272727-15.592727 18.850909 18.850909 0 0 0-10.007273 5.12Q819.432727 495.709091 728.203636 581.818182a19.549091 19.549091 0 0 0-1.396363 27.461818 17.92 17.92 0 0 0 9.541818 5.818182c17.687273 5.818182 35.607273 11.170909 53.527273 16.058182 6.283636 1.861818 8.610909 3.723636 5.12 10.705454a307.432727 307.432727 0 0 1-186.181819 168.494546 358.167273 358.167273 0 0 1-46.545454 10.705454l11.869091 14.429091c23.272727 28.858182 48.64 54.458182 68.189091 85.643636 2.327273 3.723636 4.189091 1.629091 6.516363 0a363.287273 363.287273 0 0 0 39.563637-13.498181 425.425455 425.425455 0 0 0 221.323636-228.538182c3.258182-7.214545 5.818182-9.309091 13.730909-6.516364 16.756364 6.050909 33.745455 10.938182 50.501818 16.058182s29.789091-5.352727 26.763637-23.738182zM549.934545 299.985455a19.316364 19.316364 0 0 0 26.996364 5.585454 19.083636 19.083636 0 0 0 8.843636-13.963636c5.818182-18.385455 11.636364-37.003636 16.756364-55.621818 2.094545-7.68 5.12-8.610909 12.101818-6.05091a302.545455 302.545455 0 0 1 197.585455 215.97091c3.490909-3.025455 6.050909-4.887273 8.145454-6.981819l60.043637-58.647272a56.32 56.32 0 0 1 19.549091-13.730909c8.843636-3.025455 9.541818-6.749091 5.818181-15.127273A421.701818 421.701818 0 0 0 648.843636 116.363636c-7.68-2.56-8.145455-4.887273-5.818181-11.869091 6.050909-16.989091 11.403636-34.443636 16.523636-51.665454a17.454545 17.454545 0 0 0-10.938182-23.272727 17.92 17.92 0 0 0-8.610909 0l-7.447273 1.396363L395.636364 82.152727a19.316364 19.316364 0 0 0-17.454546 21.178182 20.014545 20.014545 0 0 0 6.516364 13.032727c55.621818 61.207273 111.243636 122.647273 167.098182 183.621819zM305.570909 455.447273a19.549091 19.549091 0 0 0 0-27.694546 19.781818 19.781818 0 0 0-10.24-5.352727c-16.989091-4.189091-33.512727-8.378182-50.501818-11.869091-6.749091-1.396364-7.912727-2.792727-5.12-9.541818a308.596364 308.596364 0 0 1 192.232727-174.312727C404.247273 196.654545 377.716364 168.029091 351.650909 139.636364a10.472727 10.472727 0 0 0-14.196364-3.025455 421.003636 421.003636 0 0 0-213.178181 234.356364c-2.56 6.749091-5.12 8.145455-12.101819 6.516363C93.090909 372.363636 73.076364 367.709091 53.527273 363.054545a17.687273 17.687273 0 0 0-22.109091 11.17091 18.152727 18.152727 0 0 0 0 11.636363q33.745455 122.181818 67.490909 245.527273a19.549091 19.549091 0 0 0 23.272727 14.894545 19.781818 19.781818 0 0 0 10.472727-6.050909q86.574545-92.625455 172.916364-184.785454zM447.534545 734.254545a17.92 17.92 0 0 0-24.436363-6.050909 17.454545 17.454545 0 0 0-8.145455 11.636364c-6.283636 15.825455-12.567273 31.650909-18.385454 47.709091-2.327273 7.214545-4.887273 9.309091-12.334546 5.352727a307.2 307.2 0 0 1-160.814545-200.610909c-3.956364 1.163636-5.352727 4.189091-7.68 6.749091l-60.974546 64a39.098182 39.098182 0 0 1-19.549091 13.730909c-7.447273 1.629091-8.145455 3.956364-4.887272 11.170909A427.52 427.52 0 0 0 342.807273 907.636364c6.050909 2.56 6.749091 4.887273 4.421818 10.938181-7.912727 19.549091-15.592727 39.098182-23.272727 58.647273a17.687273 17.687273 0 0 0 8.145454 23.272727 17.454545 17.454545 0 0 0 11.403637 1.629091h6.981818l242.501818-39.098181c20.712727-3.258182 26.530909-17.221818 13.498182-33.28q-79.127273-97.745455-158.952728-193.163637z" fill="#3282FA" p-id="39317"></path></svg>