<?xml version="1.0" standalone="no"?><!DOCTYPE svg PUBLIC "-//W3C//DTD SVG 1.1//EN" "http://www.w3.org/Graphics/SVG/1.1/DTD/svg11.dtd"><svg t="1684229848194" class="icon" viewBox="0 0 1024 1024" version="1.1" xmlns="http://www.w3.org/2000/svg" p-id="30128" xmlns:xlink="http://www.w3.org/1999/xlink" width="32" height="32"><path d="M891.448889 289.28a21.447111 21.447111 0 0 0-1.365333-2.503111 30.776889 30.776889 0 0 0-2.673778-4.835556l-171.576889-214.414222A28.444444 28.444444 0 0 0 693.589333 56.888889H142.222222a28.444444 28.444444 0 0 0-28.444444 28.444444v857.713778a28.444444 28.444444 0 0 0 28.444444 28.444445h722.944a28.444444 28.444444 0 0 0 28.444445-28.444445V299.747556a27.591111 27.591111 0 0 0-2.161778-10.467556z m-85.333333-17.976889h-126.862223V113.777778h0.796445z m30.72 643.299556H170.666667V113.777778h451.584v185.969778a28.444444 28.444444 0 0 0 28.444444 28.444444h186.026667v586.410667z" fill="#3282FA" p-id="30129"></path><path d="M191.488 461.482667h39.367111l66.218667 186.538666 66.218666-186.538666h39.367112l-87.665778 231.253333H278.755556z" p-id="30130" fill="#3282FA"></path><path d="M606.606222 481.223111a91.761778 91.761778 0 0 1 20.593778 63.089778v148.48h-33.792v-38.912a107.121778 107.121778 0 0 1-35.783111 31.288889 121.230222 121.230222 0 0 1-57.230222 13.880889 81.521778 81.521778 0 0 1-55.466667-17.92 60.928 60.928 0 0 1-21.504-48.753778 68.608 68.608 0 0 1 35.328-64.398222 150.186667 150.186667 0 0 1 76.970667-17.066667l55.466666-0.455111v-7.623111q0-58.140444-60.359111-58.140445a72.248889 72.248889 0 0 0-43.861333 11.377778 51.882667 51.882667 0 0 0-21.447111 35.783111h-35.328a79.928889 79.928889 0 0 1 34.133333-59.050666 116.679111 116.679111 0 0 1 68.892445-17.863112 95.630222 95.630222 0 0 1 73.386666 26.282667z m-15.189333 97.507556l-53.248 0.455111q-77.824 0-77.824 52.792889a34.816 34.816 0 0 0 12.515555 27.761777 55.409778 55.409778 0 0 0 35.328 10.296889 87.381333 87.381333 0 0 0 59.505778-21.447111 65.308444 65.308444 0 0 0 23.722667-49.664z" p-id="30131" fill="#3282FA"></path><path d="M815.900444 460.458667v35.783111a117.134222 117.134222 0 0 0-34.417777-4.892445 54.442667 54.442667 0 0 0-45.169778 23.722667 83.911111 83.911111 0 0 0-18.375111 55.011556v122.538666h-35.328V461.368889h35.328v40.277333a81.009778 81.009778 0 0 1 24.177778-31.744 65.194667 65.194667 0 0 1 42.040888-14.791111 81.009778 81.009778 0 0 1 31.744 5.347556z" p-id="30132" fill="#3282FA"></path></svg>