<?xml version="1.0" standalone="no"?><!DOCTYPE svg PUBLIC "-//W3C//DTD SVG 1.1//EN" "http://www.w3.org/Graphics/SVG/1.1/DTD/svg11.dtd"><svg t="1666840237679" class="icon" viewBox="0 0 1024 1024" version="1.1" xmlns="http://www.w3.org/2000/svg" p-id="2493" xmlns:xlink="http://www.w3.org/1999/xlink" width="32" height="32"><path d="M454.72 906.89c7.14-43.65 38.94-190.14 101.15-267.78a10.55 10.55 0 0 0-0.64-14.15L339.94 403.43a10.55 10.55 0 0 0-14.15-0.64C249 464.27 119.05 481.89 73.71 489.4a10.56 10.56 0 0 0-7.48 15.6l55 90.71a10.59 10.59 0 0 0 12.71 4.87l152.45-35.62c11.28-3.9 19.39 10.94 10 18.32l-122.23 96.2a10.58 10.58 0 0 0-1.85 14.76l69.28 90.37a10.57 10.57 0 0 0 14.92 1.9l110.94-86.87c9-7 21.19 3.14 15.91 13.24l-72.63 139.59a10.58 10.58 0 0 0 5.27 14.64l124.17 47.75a10.53 10.53 0 0 0 14.55-7.97z" fill="#279ACC" p-id="2494"></path><path d="M707.75 550.62l-234.06-234 31.76-19.29c71.49-43.4 157.17-38 208.38 13.21s56.63 136.9 13.2 208.38zM571.09 331.47l121.75 121.76c11.17-38.42 4.25-77-20.25-101.5s-63.07-31.42-101.5-20.26z" fill="#303030" p-id="2495"></path><path d="M714.13 340.14a29.17 29.17 0 0 1-20.66-49.75L877 106.23a29.16 29.16 0 0 1 41.31 41.17L734.78 331.56a29 29 0 0 1-20.65 8.58zM527.8 918.77a39.65 39.65 0 0 1-13.87-2.51l-142.09-44.58a39.75 39.75 0 0 1-19.69-55l28-53.49L337 797a39.74 39.74 0 0 1-56.06-7.12l-69.32-90.38a39.84 39.84 0 0 1 7-55.41L275 599.66l-71 16.59a39.65 39.65 0 0 1-45.85-18.86l-54.42-89.76c-6.84-12.27-7.21-25.95-1.6-37.59a39.79 39.79 0 0 1 29.25-21.88c39.72-6.59 174.9-32.52 246.74-90.07a39.78 39.78 0 0 1 53 2.74l223.35 223.38a39.7 39.7 0 0 1 2.78 53c-57.93 72.32-83.76 208.27-90.25 248.24a39.74 39.74 0 0 1-39.14 33.31zM509.39 876z m-95.21-52l98.92 30.93c11.34-60.48 37.44-168.2 88.68-240.89L401.35 413.56c-70 49.31-172.53 75.35-233.54 87.28l34 56 139.35-32.54a39.75 39.75 0 0 1 35.71 69.39l-107.8 84.89 46.7 60.92 96.16-75.29a39.75 39.75 0 0 1 59.74 49.71z m-156.3-160zM208 567.09l0.62 1c-0.22-0.33-0.42-0.67-0.62-1z" fill="#303030" p-id="2496"></path><path d="M756 758.26m-90.81 0a90.81 90.81 0 1 0 181.62 0 90.81 90.81 0 1 0-181.62 0Z" fill="#279ACC" p-id="2497"></path><path d="M873.16 486.5m-80.63 0a80.63 80.63 0 1 0 161.26 0 80.63 80.63 0 1 0-161.26 0Z" fill="#279ACC" p-id="2498"></path><path d="M359.85 211.23m-80.63 0a80.63 80.63 0 1 0 161.26 0 80.63 80.63 0 1 0-161.26 0Z" fill="#279ACC" p-id="2499"></path><path d="M756 860.45a102.19 102.19 0 1 1 102.2-102.19A102.3 102.3 0 0 1 756 860.45z m0-146a43.86 43.86 0 1 0 43.87 43.85A43.9 43.9 0 0 0 756 714.41zM359.85 296.7a85.47 85.47 0 1 1 85.48-85.47 85.55 85.55 0 0 1-85.48 85.47z m0-112.61A27.14 27.14 0 1 0 387 211.23a27.17 27.17 0 0 0-27.15-27.14zM873.17 572a85.47 85.47 0 1 1 85.47-85.46A85.56 85.56 0 0 1 873.17 572z m0-112.61a27.14 27.14 0 1 0 27.14 27.15 27.18 27.18 0 0 0-27.14-27.18z" fill="#303030" p-id="2500"></path></svg>