<?xml version="1.0" standalone="no"?><!DOCTYPE svg PUBLIC "-//W3C//DTD SVG 1.1//EN" "http://www.w3.org/Graphics/SVG/1.1/DTD/svg11.dtd"><svg t="1681196944605" class="icon" viewBox="0 0 1094 1024" version="1.1" xmlns="http://www.w3.org/2000/svg" p-id="45104" xmlns:xlink="http://www.w3.org/1999/xlink" width="34.1875" height="32"><path d="M1092.266667 272.623435 1092.266667 874.256568C1092.266667 934.336 1043.212295 983.04 983.542709 983.04L108.723958 983.04C48.677374 983.04 0 934.248591 0 874.256568L0 341.343515 0 108.763071C0 48.694886 48.991444 0 109.546628 0L655.040039 0C715.540972 0 783.590816 45.134857 806.965692 100.65018L833.571929 163.84 983.542709 163.84C1043.589291 163.84 1092.266667 212.631406 1092.266667 272.623435L1092.266667 272.623435ZM833.571929 218.453333 797.310034 218.453333 783.238349 185.033086 756.632112 121.843266C741.780842 86.57151 693.55905 54.613333 655.040039 54.613333L109.546628 54.613333C79.089032 54.613333 54.613333 78.92228 54.613333 108.763071L54.613333 341.343515 54.613333 874.256568C54.613333 904.13013 78.883116 928.426667 108.723958 928.426667L983.542709 928.426667C1013.202924 928.426667 1037.653333 904.02134 1037.653333 874.256568L1037.653333 272.623435C1037.653333 242.749869 1013.38355 218.453333 983.542709 218.453333L833.571929 218.453333ZM1010.346667 436.906667 1037.653333 436.906667 1037.653333 382.293333 1010.346667 382.293333 81.92 382.293333 54.613333 382.293333 54.613333 436.906667 81.92 436.906667 1010.346667 436.906667ZM799.324037 657.654402 656.779142 515.604098C645.963654 505.284226 629.254022 505.284226 618.453894 515.604098 607.62407 525.92397 607.62407 543.129218 618.453894 553.944706L721.174405 656.169602 296.548571 656.169602C283.768027 656.169602 272.961755 666.98509 272.961755 680.260226 272.961755 693.535362 283.769051 703.855234 296.548571 703.855234L721.174405 703.855234 618.453894 806.09549C607.62407 816.415362 607.62407 833.62061 618.453894 844.427906 629.254022 854.75597 645.963654 854.75597 656.779142 844.427906L799.324037 702.385794C803.254149 698.44749 805.219205 694.022786 806.209413 689.110658 807.678853 686.649986 808.174469 683.211394 808.174469 680.260226 808.174469 677.31213 807.678853 673.378946 806.209413 670.92237 805.219205 666.009218 803.254149 661.58349 799.324037 657.654402Z" fill="#3282FA" p-id="45105"></path></svg>