<?xml version="1.0" standalone="no"?><!DOCTYPE svg PUBLIC "-//W3C//DTD SVG 1.1//EN" "http://www.w3.org/Graphics/SVG/1.1/DTD/svg11.dtd"><svg t="1679040579289" class="icon" viewBox="0 0 1024 1024" version="1.1" xmlns="http://www.w3.org/2000/svg" p-id="36089" xmlns:xlink="http://www.w3.org/1999/xlink" width="64" height="64"><path d="M740.877838 484.518054c29.779027 0 59.58573 6.144 89.392432 18.376649V171.976649C830.27027 135.223351 806.413838 110.702703 770.656865 110.702703h-119.226811v85.794594c0 30.636973-23.828757 55.157622-53.635459 55.157622h-41.734919c-29.806703-6.144-53.635459-30.636973-53.63546-55.157622V110.702703h-119.226811v85.794594c0 30.636973-23.828757 55.157622-53.635459 55.157622H287.827027C258.020324 245.483243 234.191568 221.017946 234.191568 196.497297V110.702703H114.964757C79.207784 110.702703 55.351351 135.223351 55.351351 171.976649v735.398054C55.351351 944.128 79.207784 968.648649 114.964757 968.648649h399.36c-41.707243-49.013622-65.563676-116.431568-65.563676-183.849514 0-165.445189 131.155027-300.281081 292.089081-300.281081zM174.550486 380.346811c0-6.144 5.95027-12.260324 11.900541-12.260325h512.664216c5.95027 0 11.900541 6.116324 11.900541 12.260325v36.753297c0 6.144-5.95027 12.260324-11.900541 12.260324H186.478703c-5.95027 0-11.900541-6.116324-11.900541-12.260324v-36.753297z m0 183.849513c0-6.144 5.95027-12.260324 11.900541-12.260324h214.597189c5.977946 0 11.928216 6.116324 11.928216 12.260324v42.897298c0 6.116324-5.95027 12.260324-11.90054 12.260324H186.451027c-5.95027 0-11.900541-6.144-11.900541-12.260324v-42.897298z m178.812541 220.602811c0 6.144-5.95027 6.144-5.95027 6.144h-166.884325c-5.977946 0-5.977946-6.144-5.977946-6.144v-42.897297c0-6.116324 5.95027-6.116324 5.950271-6.116324h160.934054c5.977946 0 5.977946 6.116324 5.977946 6.116324v42.897297h5.95027z" fill="#1DD49C" p-id="36090"></path><path d="M329.063784 0H288.380541C282.568649 0 276.756757 0 276.756757 6.171676v172.696216c0 6.199351 5.811892 6.199351 5.811892 6.199351h40.683243c5.811892 0 5.811892-6.171676 5.811892-6.171675V6.171676C334.875676 0 334.875676 0 329.063784 0z m261.673513 0h-40.710919c-5.811892 0-5.811892 6.171676-5.811892 6.171676v172.696216c0 6.199351 5.811892 6.199351 5.811892 6.199351h40.683244c5.811892 0 5.811892-6.171676 5.811892-6.171675V6.171676c0-6.171676 0-6.171676-5.811892-6.171676z m226.746811 536.686703c-29.059459-12.343351-58.146595-18.542703-87.206054-18.542703-133.728865 0-238.39827 117.234162-238.39827 252.955676 0 74.004757 29.059459 135.693838 75.58227 185.039567 40.683243 43.174054 98.857514 67.860757 162.816 67.860757C863.979243 1024 968.648649 906.793514 968.648649 771.072c0-111.034811-63.930811-197.382919-151.164541-234.412973z m29.05946 265.243675c0 6.171676-5.811892 12.343351-11.623784 12.343352h-127.916973c-5.811892 0-11.623784-6.171676-11.623784-12.343352v-178.895567c0-6.171676 5.811892-18.515027 17.435676-18.515027h11.623783c5.811892 0 17.435676 6.171676 17.435676 18.515027v148.064865h104.669406c5.811892 0 11.623784 6.144 11.623783 12.315675v18.515027h-11.623783z" fill="#80E4C5" p-id="36091"></path></svg>