<?xml version="1.0" standalone="no"?><!DOCTYPE svg PUBLIC "-//W3C//DTD SVG 1.1//EN" "http://www.w3.org/Graphics/SVG/1.1/DTD/svg11.dtd"><svg t="1681260866776" class="icon" viewBox="0 0 1024 1024" version="1.1" xmlns="http://www.w3.org/2000/svg" p-id="13489" xmlns:xlink="http://www.w3.org/1999/xlink" width="32" height="32"><path d="M893.147429 812.470857h-34.121143V221.659429a51.2 51.2 0 0 0-51.2-51.2H208.786286V128a57.892571 57.892571 0 0 1 57.709714-57.6h626.651429A57.892571 57.892571 0 0 1 950.857143 128v626.761143a57.892571 57.892571 0 0 1-57.709714 57.709714z" fill="#52D5FF" p-id="13490"></path><path d="M600.100571 702.610286a43.885714 43.885714 0 1 0 45.568 43.885714 44.251429 44.251429 0 0 0-45.568-43.885714zM258.011429 748.178286a43.885714 43.885714 0 1 0 43.885714-45.604572 44.324571 44.324571 0 0 0-43.885714 45.604572zM492.068571 402.724571a43.885714 43.885714 0 1 0-43.885714 43.885715 43.885714 43.885714 0 0 0 43.885714-43.885715z" fill="#2895FF" p-id="13491"></path><path d="M764.013714 211.529143H124.342857a51.2 51.2 0 0 0-51.2 51.2v639.670857a51.2 51.2 0 0 0 51.2 51.2h639.670857a51.2 51.2 0 0 0 51.2-51.2V262.729143a51.2 51.2 0 0 0-51.2-51.2zM591.506286 833.828571a87.588571 87.588571 0 0 1-11.666286-171.885714v-63.670857a5.376 5.376 0 0 0-5.412571-5.376H329.142857a5.376 5.376 0 0 0-5.412571 5.376V661.942857a87.771429 87.771429 0 1 1-43.885715 0v-102.4a10.386286 10.386286 0 0 1 10.386286-10.386286h135.899429v-61.805714a87.771429 87.771429 0 1 1 43.885714 0v61.659429h143.286857a10.422857 10.422857 0 0 1 10.422857 10.386285v102.4a87.771429 87.771429 0 0 1-32.219428 171.885715z" fill="#2895FF" p-id="13492"></path></svg>