<?xml version="1.0" standalone="no"?><!DOCTYPE svg PUBLIC "-//W3C//DTD SVG 1.1//EN" "http://www.w3.org/Graphics/SVG/1.1/DTD/svg11.dtd"><svg t="1681204275549" class="icon" viewBox="0 0 1254 1024" version="1.1" xmlns="http://www.w3.org/2000/svg" p-id="95920" xmlns:xlink="http://www.w3.org/1999/xlink" width="39.1875" height="32"><path d="M946.711045 271.24543H88.247837A88.562446 88.562446 0 0 0 0 359.493266v576.258897a88.562446 88.562446 0 0 0 88.247837 88.247837h858.568078a88.562446 88.562446 0 0 0 88.247836-88.247837V359.493266a88.71975 88.71975 0 0 0-88.352706-88.247836z m-146.817553 131.768754A65.805725 65.805725 0 1 1 734.087767 468.819909a65.75329 65.75329 0 0 1 65.64842-65.805725zM94.225408 873.459573a757.526141 757.526141 0 0 1 60.352502-75.191561 214.982846 214.982846 0 0 1 140.839981-56.524758c120.600133 0 281.837268 94.068104 281.837268 94.068103a269.252906 269.252906 0 0 1 181.162374-56.524758 290.436581 290.436581 0 0 1 201.349787 94.068104H94.068104z" fill="#22BF76" p-id="95921"></path><path d="M1185.07983 180.79533L345.335859 1.940089a88.510011 88.510011 0 0 0-104.86968 68.165293l-30.936556 144.982334h793.286701a88.562446 88.562446 0 0 1 88.247837 88.247836v576.258897a85.835834 85.835834 0 0 1-5.610528 29.940294 87.723488 87.723488 0 0 0 47.191357-60.195197l120.023349-563.674535a88.247837 88.247837 0 0 0-67.588509-104.869681z" fill="#FECE01" p-id="95922"></path></svg>