<?xml version="1.0" standalone="no"?><!DOCTYPE svg PUBLIC "-//W3C//DTD SVG 1.1//EN" "http://www.w3.org/Graphics/SVG/1.1/DTD/svg11.dtd"><svg t="1679042074976" class="icon" viewBox="0 0 1316 1024" version="1.1" xmlns="http://www.w3.org/2000/svg" p-id="43838" xmlns:xlink="http://www.w3.org/1999/xlink" width="82.25" height="64"><path d="M1101.238857 839.753143l-2.56-64.365714h103.716572c10.752 0 19.748571-9.142857 19.748571-20.114286V84.48a20.041143 20.041143 0 0 0-19.748571-20.041143H293.814857a20.041143 20.041143 0 0 0-19.675428 20.041143V171.154286L197.485714 169.033143v-92.891429C197.485714 34.084571 231.716571 0 273.554286 0h949.101714c41.910857 0 76.068571 34.157714 76.068571 76.068571v687.542858c0 41.984-34.157714 76.141714-76.068571 76.141714h-121.417143z" fill="#1A8CA2" p-id="43839"></path><path d="M354.230857 484.790857c43.008 0 77.092571-34.157714 77.092572-77.165714 0-43.008-34.084571-77.092571-77.092572-77.092572-43.008 0-77.165714 34.084571-77.165714 77.092572a77.531429 77.531429 0 0 0 77.165714 77.165714M945.883429 846.628571a31.670857 31.670857 0 0 1-26.624-13.385142L727.917714 576.731429l-185.344 185.344a35.108571 35.108571 0 0 1-23.771428 10.386285 29.476571 29.476571 0 0 1-23.698286-10.386285L409.088 677.522286l-155.794286 158.72c-13.238857 13.312-34.011429 13.312-48.859428 0-13.385143-13.385143-13.385143-34.084571 0-49.005715L383.853714 603.428571a35.108571 35.108571 0 0 1 23.771429-10.386285c8.850286 0 17.773714 2.925714 23.698286 10.386285l86.016 86.016L707.145143 499.565714a35.620571 35.620571 0 0 1 26.697143-10.313143c10.386286 0 19.236571 5.851429 25.234285 13.312l215.04 289.133715a33.572571 33.572571 0 0 1-7.460571 47.542857 27.867429 27.867429 0 0 1-20.772571 7.314286" fill="#F19419" p-id="43840"></path><path d="M1062.180571 1008.420571H113.152c-41.910857 0-76.068571-34.157714-76.068571-76.068571v-687.542857c0-41.910857 34.157714-76.068571 76.068571-76.068572h949.028571c41.910857 0 76.068571 34.157714 76.068572 76.068572v687.542857c0 41.910857-34.157714 76.068571-76.068572 76.068571z m-20.260571-64.365714c10.752 0 19.748571-9.142857 19.748571-20.041143V253.074286a20.041143 20.041143 0 0 0-19.748571-20.041143H133.412571a20.041143 20.041143 0 0 0-19.748571 20.041143v670.866285c0 10.971429 8.923429 20.041143 19.748571 20.041143h908.507429z" fill="#1A8CA2" p-id="43841"></path></svg>