<?xml version="1.0" standalone="no"?><!DOCTYPE svg PUBLIC "-//W3C//DTD SVG 1.1//EN" "http://www.w3.org/Graphics/SVG/1.1/DTD/svg11.dtd"><svg t="1684294252372" class="icon" viewBox="0 0 1024 1024" version="1.1" xmlns="http://www.w3.org/2000/svg" p-id="14219" xmlns:xlink="http://www.w3.org/1999/xlink" width="32" height="32"><path d="M265.702669 277.288421h450.290527a14.012632 14.012632 0 0 0 14.012631-13.958737v-48.990316a14.012632 14.012632 0 0 0-14.012631-13.958736H265.702669a14.012632 14.012632 0 0 0-14.012631 13.958736v48.990316a14.012632 14.012632 0 0 0 14.012631 13.904842z m-14.012631 178.499368c0.053895 3.772632 1.616842 7.329684 4.203789 9.970527a13.689263 13.689263 0 0 0 9.808842 4.042105H534.098459a13.689263 13.689263 0 0 0 9.808842-4.042105 14.282105 14.282105 0 0 0 4.20379-9.970527V406.905263a14.282105 14.282105 0 0 0-4.20379-9.916631 13.689263 13.689263 0 0 0-9.808842-4.042106H265.702669a13.689263 13.689263 0 0 0-9.808842 4.042106 14.282105 14.282105 0 0 0-4.149894 9.916631v48.936421z m523.964631 348.052211a205.877895 205.877895 0 0 0 27.863579-104.016842c0-111.669895-87.740632-202.105263-196.015157-202.105263-108.220632 0-195.961263 90.435368-195.961264 202.105263 0 111.616 87.740632 202.105263 196.015158 202.105263 43.493053 0 83.590737-14.551579 116.197053-39.343158l106.226526 109.568a13.743158 13.743158 0 0 0 19.833263 0l34.654316-35.73221a14.767158 14.767158 0 0 0 0-20.48l-108.867368-112.101053z m-289.414736-104.016842c0-68.985263 54.433684-125.143579 121.263158-125.143579s121.370947 56.158316 121.370947 125.089684c0 68.985263-54.487579 125.143579-121.370947 125.143579-66.829474 0-121.263158-56.212211-121.263158-125.143579zM864.742669 0H118.13888A37.995789 37.995789 0 0 0 80.843722 38.480842v893.143579c0 21.180632 16.761263 38.480842 37.349053 38.480842H452.178459a19.024842 19.024842 0 0 0 18.647579-19.240421v-48.128a19.024842 19.024842 0 0 0-18.647579-19.240421H164.811722V86.608842H818.123722v437.517474c0 10.617263 8.407579 19.294316 18.647579 19.294316h46.672842a19.024842 19.024842 0 0 0 18.647579-19.294316V38.534737A38.049684 38.049684 0 0 0 864.742669 0z" fill="#3282FA" p-id="14220"></path></svg>