<?xml version="1.0" standalone="no"?><!DOCTYPE svg PUBLIC "-//W3C//DTD SVG 1.1//EN" "http://www.w3.org/Graphics/SVG/1.1/DTD/svg11.dtd"><svg t="1679280232381" class="icon" viewBox="0 0 1024 1024" version="1.1" xmlns="http://www.w3.org/2000/svg" p-id="3978" xmlns:xlink="http://www.w3.org/1999/xlink" width="64" height="64"><path d="M904 224H120c-22.092 0-40-17.909-40-40 0-22.092 17.908-40 40-40h784c22.092 0 40 17.908 40 40 0 22.091-17.908 40-40 40zM120 800h784c22.092 0 40 17.908 40 40 0 22.091-17.908 40-40 40H120c-22.092 0-40-17.909-40-40 0-22.092 17.908-40 40-40zM120 472h464c22.092 0 40 17.908 40 40 0 22.091-17.908 40-40 40H120c-22.092 0-40-17.909-40-40 0-22.092 17.908-40 40-40zM715.716 325.323c15.621-15.621 40.947-15.621 56.568 0l158.392 158.393c15.621 15.621 15.621 40.947 0 56.568L772.284 698.676c-15.621 15.621-40.947 15.621-56.568 0s-15.621-40.947 0-56.568L845.823 512 715.716 381.892c-15.621-15.621-15.621-40.948 0-56.569z" fill="#3282FA" p-id="3979"></path></svg>