<?xml version="1.0" standalone="no"?><!DOCTYPE svg PUBLIC "-//W3C//DTD SVG 1.1//EN" "http://www.w3.org/Graphics/SVG/1.1/DTD/svg11.dtd"><svg t="1679551016965" class="icon" viewBox="0 0 1107 1024" version="1.1" xmlns="http://www.w3.org/2000/svg" p-id="9545" xmlns:xlink="http://www.w3.org/1999/xlink" width="34.59375" height="32"><path d="M948.557581 141.591415A503.613593 503.613593 0 0 0 583.152253 0.233103 511.882464 511.882464 0 0 0 84.263729 518.809415H0l123.639303 135.451975 123.639303-135.451975H162.621121a433.131316 433.131316 0 1 1 39.375574 177.190084 39.375574 39.375574 0 1 0-71.269789 33.075482A511.882464 511.882464 0 0 0 595.752437 1023.998031h12.600184a511.882464 511.882464 0 0 0 498.888524-524.482647 505.976128 505.976128 0 0 0-158.683564-357.923969z" p-id="9546" fill="#3282FA"></path><path d="M537.870343 708.993438l253.578697-145.689624a59.063361 59.063361 0 0 0 0-102.376493L537.870343 315.237697a59.063361 59.063361 0 0 0-88.595042 51.188246v292.954272A59.063361 59.063361 0 0 0 537.870343 708.993438z" p-id="9547" fill="#3282FA"></path></svg>