<?xml version="1.0" standalone="no"?><!DOCTYPE svg PUBLIC "-//W3C//DTD SVG 1.1//EN" "http://www.w3.org/Graphics/SVG/1.1/DTD/svg11.dtd"><svg t="1679542588001" class="icon" viewBox="0 0 1083 1024" version="1.1" xmlns="http://www.w3.org/2000/svg" p-id="3826" xmlns:xlink="http://www.w3.org/1999/xlink" width="33.84375" height="32"><path d="M1047.797183 176.676056H675.695775V36.056338a36.056338 36.056338 0 0 0-36.056338-36.056338H444.214085a36.056338 36.056338 0 0 0-36.056339 36.056338v140.619718H36.056338a36.056338 36.056338 0 0 0 0 72.112676h144.225352V987.943662a36.056338 36.056338 0 0 0 36.056338 36.056338h649.014085a36.056338 36.056338 0 0 0 36.056338-36.056338V248.788732h144.225352a36.056338 36.056338 0 0 0 0-72.112676zM480.270423 72.112676h122.591549v104.56338h-122.591549z m349.025352 879.774648h-576.901409V248.788732h576.901409z" fill="#3282FA" p-id="3827"></path><path d="M372.101408 383.639437a36.056338 36.056338 0 0 0-36.056338 36.056338v360.56338a36.056338 36.056338 0 0 0 72.112676 0v-360.56338a36.056338 36.056338 0 0 0-36.056338-36.056338zM541.566197 383.639437a36.056338 36.056338 0 0 0-36.056338 36.056338v360.56338a36.056338 36.056338 0 0 0 72.112676 0v-360.56338a36.056338 36.056338 0 0 0-36.056338-36.056338zM711.752113 813.430986a36.056338 36.056338 0 0 0 36.056338-36.056338v-360.56338a36.056338 36.056338 0 0 0-72.112676 0v360.56338a36.056338 36.056338 0 0 0 36.056338 36.056338z" fill="#3282FA" p-id="3828"></path></svg>