<?xml version="1.0" standalone="no"?><!DOCTYPE svg PUBLIC "-//W3C//DTD SVG 1.1//EN" "http://www.w3.org/Graphics/SVG/1.1/DTD/svg11.dtd"><svg t="1684129331000" class="icon" viewBox="0 0 1028 1024" version="1.1" xmlns="http://www.w3.org/2000/svg" p-id="2422" xmlns:xlink="http://www.w3.org/1999/xlink" width="32.125" height="32"><path d="M900.48 0h-768a128 128 0 0 0-128 128v627.84C0 772.48 0 808.32 4.48 896a128 128 0 0 0 128 128h768a128 128 0 0 0 128-128V128a128 128 0 0 0-128-128z m64 896a64 64 0 0 1-64 64h-768a66.88 66.88 0 0 1-16.32-2.24l272.32-272.64V832h64v-256h-256v64h146.56l-272 272a67.84 67.84 0 0 1-2.88-18.24c0-16.64-1.92-34.56-2.88-51.52l3.2 2.88V128a64 64 0 0 1 64-64h768a71.68 71.68 0 0 1 16.32 2.24l-272.32 272.64V192h-64v256h256v-64h-146.88l272.32-272.32a54.4 54.4 0 0 1 2.56 16.32z" fill="#3282FA" p-id="2423"></path></svg>