<?xml version="1.0" standalone="no"?><!DOCTYPE svg PUBLIC "-//W3C//DTD SVG 1.1//EN" "http://www.w3.org/Graphics/SVG/1.1/DTD/svg11.dtd"><svg t="1684120339302" class="icon" viewBox="0 0 1024 1024" version="1.1" xmlns="http://www.w3.org/2000/svg" p-id="8851" xmlns:xlink="http://www.w3.org/1999/xlink" width="32" height="32"><path d="M167.10927734 154.15244141a14.09589844 14.09589844 0 0 0-12.96474609 14.31738281v687.08012695a14.11171875 14.11171875 0 0 0 13.89814453 14.31342774H855.54995117a14.11567383 14.11567383 0 0 0 14.31342774-13.90209961V168.46982422a14.11962891 14.11962891 0 0 0-13.89814454-14.31738281H168.45795898a25.55375977 25.55375977 0 0 0-1.34868164 0z m15.6581543 28.63081054h658.46513672v658.44931641H182.76743164V182.78325195z" fill="#3282FA" p-id="8852"></path><path d="M38.90080955 475.55322567h912.48907381v52.7886241h-912.48907381z" fill="#3282FA" p-id="8853"></path><path d="M524.21679586 45.71054205l-0.34689666 912.48907382-52.78862412-0.02262371 0.35443791-912.4890738z" fill="#3282FA" p-id="8854"></path></svg>