<?xml version="1.0" standalone="no"?><!DOCTYPE svg PUBLIC "-//W3C//DTD SVG 1.1//EN" "http://www.w3.org/Graphics/SVG/1.1/DTD/svg11.dtd"><svg t="1684457954145" class="icon" viewBox="0 0 1024 1024" version="1.1" xmlns="http://www.w3.org/2000/svg" p-id="11689" xmlns:xlink="http://www.w3.org/1999/xlink" width="32" height="32"><path d="M608.888 94c4.528 0 8.844 1.919 11.877 5.28l241.113 267.153a16 16 0 0 1 4.122 10.72V566a8 8 0 0 1-8 8h-64a8 8 0 0 1-8-8V443H576c-17.673 0-32-14.327-32-32V174H242v675h233a8 8 0 0 1 8 8v64a8 8 0 0 1-8 8H194c-17.673 0-32-14.327-32-32V126c0-17.673 14.327-32 32-32h414.888z m153.49 277L616 208.912V371h146.378z" fill="#3282FA" p-id="11690"></path><path d="M670.089 647.914l77.198 77.197H535.312a8 8 0 0 0-8 8v64a8 8 0 0 0 8 8h213.753l-78.976 78.976a8 8 0 0 0 0 11.314l45.255 45.255a8 8 0 0 0 11.314 0l152.027-152.028c12.497-12.497 12.497-32.758 0-45.255L726.658 591.345a8 8 0 0 0-11.314 0L670.089 636.6a8 8 0 0 0 0 11.314z" fill="#3282FA" p-id="11691"></path></svg>