<?xml version="1.0" standalone="no"?><!DOCTYPE svg PUBLIC "-//W3C//DTD SVG 1.1//EN" "http://www.w3.org/Graphics/SVG/1.1/DTD/svg11.dtd"><svg t="1678267139848" class="icon" viewBox="0 0 1024 1024" version="1.1" xmlns="http://www.w3.org/2000/svg" p-id="6739" width="16" height="16" xmlns:xlink="http://www.w3.org/1999/xlink"><path d="M364.183 695.49a37.013 37.013 0 0 1-26.231-10.89c-14.521-14.521-14.521-37.979 0-52.499l297.073-297.085c14.521-14.532 38.014-14.532 52.511 0 14.497 14.518 14.497 37.99 0 52.509L390.463 684.601c-7.284 7.238-16.781 10.889-26.28 10.889" fill="#2c2c2c" p-id="6740"></path><path d="M661.28 695.49a37.028 37.028 0 0 1-26.254-10.89L337.953 387.525c-14.521-14.518-14.521-37.99 0-52.509 14.474-14.532 37.99-14.532 52.511 0l297.073 297.085c14.497 14.521 14.497 37.979 0 52.499-7.261 7.239-16.758 10.89-26.257 10.89" fill="#2c2c2c" p-id="6741"></path><path d="M512.22 955.464c-118.037 0-229.771-45.673-314.586-130.568C94.781 722.065 49.508 579.796 73.32 434.614c31.325-191.14 187.829-341.902 380.659-366.639 153.399-19.874 303.876 39.258 402.004 157.68 13.104 15.776 10.913 39.166-4.91 52.272-15.799 13.115-39.222 10.89-52.237-4.886-81.846-98.754-207.189-147.772-335.405-131.426C302.929 162.23 172.612 287.641 146.607 446.6c-19.909 121.324 17.831 240.088 103.537 325.785 85.73 85.706 204.496 123.514 325.75 103.57C735.208 849.827 863.812 713.756 881.69 552.41c4.131-37.1 2.876-74.167-3.722-110.146-2.602-14.03-5.983-27.991-10.181-41.553-6.006-19.612 5.022-40.398 24.634-46.381 19.657-6.107 40.363 4.977 46.39 24.613a436.678 436.678 0 0 1 12.148 49.862c7.991 43.162 9.496 87.5 4.566 131.814-21.826 196.87-172.988 356.708-367.576 388.648-25.435 4.142-50.707 6.197-75.729 6.197" fill="#2c2c2c" p-id="6742"></path></svg>